<svg xmlns="http://www.w3.org/2000/svg" viewBox="0 0 996.6 1000.0" fill="none" stroke="#C1632B"><g><path d="M492.0 900.4 L493.2 691.8 L495.4 638.1 L493.9 580.7 L499.0 569.5"/><path d="M77.6 992.0 L74.2 988.6 L74.5 764.8 L71.5 748.1 L73.1 746.6 L73.1 274.0 L74.6 272.5 L72.8 248.9 L75.3 230.9 L73.1 229.5 L73.1 157.5 L75.3 138.1 L77.6 135.8 L150.7 136.1 L164.0 134.3 L165.5 135.8 L300.2 135.8 L307.1 138.1 L331.1 133.6 L334.5 135.8 L431.5 135.8 L433.8 138.1 L565.8 138.5 L568.5 135.8 L648.4 135.8 L649.9 134.3 L678.8 137.4 L680.4 135.8 L828.8 134.7 L840.9 137.4 L842.5 135.8 L924.7 137.0 L924.3 150.3 L918.9 151.8 L808.2 262.6 L803.7 271.7 L500.0 271.7 L495.4 274.0 L213.5 272.8 L211.9 274.4 L201.3 271.3 L199.8 272.8 L171.2 271.7 L167.8 274.0 L141.6 326.5 L123.3 376.7 L111.9 424.7 L106.2 470.3 L107.3 537.7 L116.4 592.5 L131.3 642.7 L155.3 696.3 L183.8 742.0 L213.5 778.5 L259.1 821.9 L293.4 844.7 L342.5 871.0 L405.3 892.7 L426.9 895.0 L432.6 899.5 L472.6 901.8 L492.0 900.4"/><path d="M106.4 495.4 L990.5 497.3"/><path d="M924.3 150.3 L925.8 194.1 L923.1 240.1 L926.9 256.8 L925.5 272.8"/><path d="M840.9 137.4 L843.6 143.8 L883.4 186.4 L917.8 237.4 L923.1 240.1"/><path d="M429.8 897.3 L431.5 937.2 L430.0 989.3"/><path d="M492.0 900.4 L516.0 901.8 L563.9 896.1 L574.2 891.6 L591.3 889.3 L615.3 881.3 L671.2 856.2 L710.0 832.2 L742.0 807.1 L782.0 764.8 L809.4 729.5 L819.6 728.3 L891.6 732.9 L921.2 737.4 L931.5 735.2 L941.8 716.9 L960.0 674.7 L979.5 610.7 L989.7 546.8 L992.0 513.7 L990.5 497.3"/><path d="M497.7 273.5 L500.0 168.9 L498.9 92.8"/><path d="M565.8 629.4 L568.5 626.7 L567.4 140.4 L565.8 138.5"/><path d="M75.1 147.3 L82.2 149.5 L110.7 180.4 L114.4 181.5 L183.8 250.0 L184.9 254.6 L199.8 267.1 L201.3 271.3"/><path d="M164.0 134.3 L166.7 127.9 L178.1 117.6 L231.7 78.8 L288.8 47.9 L324.2 33.1 L374.4 17.1 L414.4 8.0 L460.0 2.3 L505.7 2.3 L590.2 10.3 L647.3 25.1 L683.8 38.8 L724.9 58.2 L776.3 89.0 L826.5 127.9 L828.8 134.7"/><path d="M497.7 273.5 L495.4 557.1 L493.9 558.6 L495.4 567.4 L499.0 569.5"/><path d="M579.9 495.1 L582.2 488.6 L791.1 279.7 L793.4 272.0"/><path d="M499.0 569.5 L503.4 570.8 L560.5 627.9 L565.8 629.4 L568.8 640.4 L575.3 642.7 L920.1 988.6"/><path d="M920.1 988.6 L924.7 986.3 L924.7 760.3 L923.1 758.8 L925.8 744.3 L923.5 497.1 L925.5 272.8"/><path d="M77.6 992.0 L396.1 992.0 L399.9 988.2 L431.5 990.9 L567.4 990.9 L570.0 988.2 L596.7 988.2 L599.3 990.9 L917.8 990.9 L920.1 988.6"/><path d="M678.8 137.4 L684.9 147.3 L728.3 178.1 L778.5 226.0 L802.5 256.8 L808.2 271.7 L925.5 272.8"/><path d="M568.8 640.4 L567.4 976.0 L570.0 988.2"/><path d="M433.0 633.9 L431.5 632.4 L430.5 496.9 L431.5 141.6 L433.8 138.1"/><path d="M253.4 816.9 L423.5 647.3 L430.4 643.8 L433.0 633.9 L438.4 632.4 L486.3 583.3 L493.9 580.7"/><path d="M75.3 230.9 L81.1 228.3 L109.6 187.2 L110.7 182.6 L114.4 181.5 L147.3 146.1 L150.7 136.1"/><path d="M211.9 274.4 L215.8 284.2 L422.4 489.7 L422.4 492.0 L430.5 496.9 L434.9 504.6 L438.4 505.7 L489.7 557.1 L493.9 558.6"/><path d="M173.5 271.7 L175.8 264.8 L184.9 254.6"/><path d="M71.5 748.1 L66.2 745.4 L36.5 682.6 L13.7 613.0 L6.8 579.9 L3.4 544.5 L2.3 463.5 L9.1 406.4 L25.1 344.7 L57.1 267.1 L63.9 254.6 L72.8 248.9"/><path d="M499.0 569.5 L503.4 567.4 L559.4 511.4 L567.0 508.8"/><path d="M85.6 990.6 L87.9 982.9 L253.4 816.9"/><path d="M332.2 133.6 L336.8 126.7 L352.7 119.9 L412.1 101.6 L462.3 93.6 L498.9 92.8"/><path d="M74.6 272.5 L167.8 274.0"/><path d="M498.9 92.8 L534.2 94.7 L582.2 103.9 L637.0 122.1 L646.1 126.7 L649.9 134.3"/><path d="M184.9 254.6 L186.1 250.0 L224.9 205.5 L261.4 173.5 L300.2 147.3 L305.9 138.1"/><path d="M74.5 764.8 L81.1 768.3 L98.2 793.4 L131.3 832.2 L181.5 882.4 L215.8 906.4 L262.6 934.9 L297.9 952.1 L349.3 971.5 L395.0 982.9 L399.9 988.2"/><path d="M429.2 645.0 L431.5 760.3 L429.8 897.3"/><path d="M927.2 262.6 L936.1 268.3 L949.8 296.8 L976.0 372.1 L988.6 437.2 L990.5 497.3"/><path d="M596.7 988.2 L600.5 982.9 L643.8 971.5 L697.5 950.9 L740.9 929.2 L783.1 903.0 L824.2 871.0 L848.2 847.0 L884.7 804.8 L914.4 764.8 L923.1 758.8"/></g></svg>