<?xml version="1.0" standalone="no"?>
<!DOCTYPE svg PUBLIC "-//W3C//DTD SVG 20010904//EN"
 "http://www.w3.org/TR/2001/REC-SVG-20010904/DTD/svg10.dtd">
<svg version="1.0" xmlns="http://www.w3.org/2000/svg"
 width="351.000000pt" height="376.000000pt" viewBox="0 0 351.000000 376.000000"
 preserveAspectRatio="xMidYMid meet">
<g transform="translate(0.000000,376.000000) scale(0.100000,-0.100000)"
fill="#000000" stroke="none">
<path d="M1605 3564 c-295 -32 -609 -166 -830 -353 l-59 -51 -133 0 -133 0 0
-164 0 -164 -39 -69 c-76 -131 -147 -347 -172 -522 -15 -108 -6 -420 15 -516
29 -126 79 -268 138 -385 l58 -114 0 -362 c0 -330 4 -397 24 -365 4 6 507 9
1311 8 l1305 -2 0 379 0 380 45 87 c212 411 214 927 4 1356 l-51 103 3 172 2
173 -141 2 -142 1 -78 63 c-202 163 -424 268 -676 320 -99 20 -354 33 -451 23z
m438 -44 c150 -29 243 -61 392 -135 113 -56 324 -197 332 -222 2 -5 -111 -6
-249 -3 l-253 5 -70 31 c-279 126 -628 123 -915 -6 l-65 -30 -233 -2 c-127 -2
-232 -1 -232 2 1 3 24 23 52 45 245 192 496 297 798 335 108 13 321 4 443 -20z
m-283 -307 l0 -58 -250 0 c-137 0 -246 3 -242 7 4 4 54 23 112 42 118 39 231
61 338 65 l42 1 0 -57z m190 36 c68 -12 243 -66 264 -82 13 -9 -34 -12 -209
-12 l-225 0 0 58 0 57 58 -6 c31 -3 82 -10 112 -15z m-1314 -171 l-51 -57 -52
52 c-29 28 -53 54 -53 57 0 3 47 5 103 5 l104 0 -51 -57z m519 47 c-120 -72
-245 -181 -324 -280 l-31 -40 -101 101 -100 100 59 65 59 64 227 0 c156 0 222
-3 211 -10z m395 -190 l0 -200 -341 2 c-340 1 -341 1 -365 24 -13 12 -24 26
-24 31 0 4 31 43 69 85 72 82 171 164 268 223 l58 35 168 0 167 0 0 -200z
m822 142 c146 -97 346 -303 320 -329 -6 -6 -133 -11 -356 -11 l-346 -2 0 200
0 200 149 -1 149 -1 84 -56z m466 21 c18 -18 48 -50 64 -71 l31 -39 -108 -108
-108 -108 -42 56 c-58 77 -175 188 -260 247 -38 27 -73 51 -77 54 -4 3 99 5
229 4 l237 -3 34 -32z m232 32 c2 0 -22 -27 -55 -60 -33 -33 -62 -59 -65 -58
-3 2 -30 30 -62 63 l-56 60 116 -2 c65 -1 119 -2 122 -3z m-1312 -201 l-5
-191 -92 -2 -91 -1 0 193 0 192 96 0 96 0 -4 -191z m212 -1 l0 -193 -95 1
c-52 1 -95 5 -95 8 0 3 0 89 0 191 l0 185 95 0 95 0 0 -192z m-1446 125 c38
-40 43 -51 33 -64 -7 -9 -29 -40 -49 -70 l-38 -54 0 118 c0 64 2 117 4 117 3
0 25 -21 50 -47z m2546 -90 l0 -128 -40 61 c-22 34 -47 67 -55 74 -14 12 -10
20 37 67 29 29 54 53 55 53 2 0 3 -57 3 -127z m-2382 -75 l101 -101 -18 -25
c-18 -25 -20 -26 -157 -25 l-139 2 -3 40 c-2 22 2 50 9 62 10 20 101 149 104
149 1 0 47 -46 103 -102z m2325 -4 c40 -59 57 -95 57 -117 l0 -32 -166 2 c-91
1 -168 4 -172 7 -6 6 207 226 218 226 3 0 31 -39 63 -86z m-2563 -851 l-1
-758 -31 60 c-77 150 -137 340 -159 510 -25 195 0 463 62 655 21 65 118 290
125 290 2 0 4 -341 4 -757z m390 705 c0 -5 -13 -8 -30 -8 -32 0 -37 9 -19 27
9 9 16 9 30 0 11 -7 19 -15 19 -19z m2308 -100 c73 -173 122 -383 122 -528 l0
-65 -90 0 -90 0 0 355 c0 198 4 350 9 345 4 -6 27 -54 49 -107z m-2460 -17
c-221 -435 -175 -974 117 -1363 35 -46 92 -111 127 -145 l65 -62 -97 -96 -98
-97 -77 73 c-79 75 -166 177 -223 261 l-32 47 0 738 0 738 133 0 133 0 -48
-94z m502 -236 l336 -335 -480 0 -479 0 6 84 c13 158 61 335 129 471 52 103
64 115 111 115 41 0 44 -2 377 -335z m360 0 l0 -330 -325 325 c-179 179 -325
327 -325 330 0 3 146 5 325 5 l325 0 0 -330z m198 322 c1 -4 2 -153 2 -332 l0
-325 -90 0 -90 0 0 333 0 332 87 -1 c49 0 89 -4 91 -7z m224 -325 l3 -332
-104 0 -104 0 6 333 c3 182 6 332 6 332 1 0 44 0 96 0 l94 0 3 -333z m688 333
c0 0 -151 -151 -335 -335 l-335 -335 0 335 0 335 335 0 c184 0 335 0 335 0z
m408 -335 c-2 -261 -6 -335 -15 -334 -7 1 -241 2 -520 3 l-508 1 332 333 333
332 190 0 190 0 -2 -335z m-1518 -563 l0 -212 -270 -270 -270 -270 -61 60
c-217 213 -354 512 -376 817 l-6 88 492 0 491 0 0 -213z m200 128 c0 -47 -1
-85 -3 -85 -1 0 -40 38 -87 85 l-85 85 88 0 87 0 0 -85z m220 82 c0 -1 -45
-47 -100 -102 l-100 -100 0 103 0 102 100 0 c55 0 100 -1 100 -3z m703 -4
l397 -6 0 -354 0 -355 -27 6 c-16 3 -86 8 -158 11 -71 4 -135 11 -142 17 -8 6
-24 -8 -54 -48 -23 -32 -73 -89 -110 -128 l-68 -71 -260 260 -261 260 0 201
c0 110 3 204 7 207 8 9 172 9 676 0z m595 -106 c-9 -120 -29 -225 -67 -345
-27 -86 -101 -261 -111 -262 -3 0 -4 161 -2 357 l2 358 93 -3 92 -3 -7 -102z
m-1518 -102 c0 -6 -40 -51 -90 -100 l-90 -90 0 190 0 190 90 -90 c50 -49 90
-94 90 -100z m225 0 c0 -96 -2 -175 -5 -175 -2 0 -44 39 -92 87 l-88 88 87 87
c48 49 90 88 93 88 3 0 5 -79 5 -175z m-5 -601 l0 -392 -32 -5 c-18 -4 -66 -9
-105 -13 l-73 -7 0 290 c0 159 3 385 7 502 l6 212 99 -98 98 -98 0 -391z
m-228 74 c-2 -265 -5 -484 -7 -486 -2 -2 -40 -1 -84 3 l-81 7 0 391 0 392 87
87 c48 49 88 88 88 88 0 0 -1 -217 -3 -482z m748 -209 c0 -12 -157 -118 -225
-152 -73 -36 -236 -97 -261 -97 -12 0 -14 58 -14 377 l0 378 250 -250 c138
-137 250 -253 250 -256z m-940 116 c0 -313 -2 -375 -14 -375 -30 0 -193 53
-262 85 -41 18 -113 59 -160 90 l-87 57 259 259 c142 142 260 259 261 259 2 0
3 -169 3 -375z m1463 99 c31 -3 57 -10 57 -16 0 -41 -299 -398 -334 -398 -6 0
-56 45 -110 99 l-99 100 81 86 c45 47 89 99 99 116 l18 31 115 -6 c63 -4 141
-9 173 -12z m57 -416 l0 -343 -160 160 -160 160 108 110 c59 61 129 143 156
183 27 39 51 72 53 72 2 0 3 -154 3 -342z m-2399 80 l115 -117 -158 -158 -158
-158 0 339 0 339 43 -64 c23 -35 94 -117 158 -181z m1941 5 c54 -54 98 -101
98 -105 0 -3 -37 -32 -81 -64 -151 -106 -352 -195 -539 -239 -108 -25 -100
-34 -100 118 l0 132 83 22 c107 30 267 109 359 178 40 30 75 55 78 55 2 0 49
-44 102 -97z m-1357 -74 c79 -37 240 -89 276 -89 18 0 19 -9 19 -135 l0 -134
-32 6 c-228 42 -426 123 -616 251 l-83 56 97 97 96 97 82 -56 c44 -30 117 -72
161 -93z m1640 -208 c85 -85 155 -155 155 -155 0 -1 -220 -1 -489 -1 -269 0
-487 2 -485 4 2 2 44 14 92 27 163 41 379 146 512 248 25 19 48 34 52 33 4 -1
77 -71 163 -156z m-2035 111 c134 -101 329 -195 492 -236 48 -13 91 -26 96
-31 4 -4 -4 -5 -18 -2 -14 4 -227 7 -475 7 l-450 0 150 150 c82 83 151 150
152 150 2 0 25 -17 53 -38z m1110 -127 l0 -135 -200 0 -200 0 0 128 0 129 133
-4 c72 -3 157 0 187 5 30 5 61 10 68 11 9 1 12 -32 12 -134z"/>
</g>
</svg>
