<svg width="180" height="76" viewBox="0 0 180 76" fill="none" xmlns="http://www.w3.org/2000/svg">
<path d="M1 26.1561C1 12.2851 12.3657 1 26.336 1H152.664C166.634 1 178 12.2851 178 26.1561C178 40.0271 166.634 51.3097 152.664 51.3097H26.336C12.3657 51.3097 1 40.0258 1 26.1561Z" fill="white" stroke="#F1F1F1" stroke-miterlimit="10"/>
<path d="M32.9788 26.5312C32.9788 26.5312 41.4096 16.5576 54.8595 12.6398C68.3132 8.72074 82.1202 12.4599 90.3661 10.679C98.6184 8.89935 102.208 6.05064 105.794 5.51484C109.381 4.97903 111.353 6.22924 111.353 6.22924C111.353 6.22924 108.841 6.40657 107.765 7.29575C106.691 8.18749 105.611 9.4326 105.611 9.4326C105.611 9.4326 111.711 8.72074 114.941 9.4326C118.168 10.1445 121.935 12.1053 125.342 12.6398C128.749 13.1743 135.383 12.4599 135.383 12.4599C135.383 12.4599 135.024 13.529 133.412 14.2434C131.797 14.9552 128.929 15.6658 128.929 15.6658C128.929 15.6658 131.258 16.9122 132.697 17.0921C134.125 17.2694 138.255 17.0921 138.255 17.0921C138.255 17.0921 137.416 18.1012 136.821 18.6944C136.219 19.2889 134.786 19.5262 135.267 19.7635C135.745 20.0007 137.658 20.3592 140.048 20.2393C142.44 20.1181 145.784 19.4075 145.784 19.4075C145.784 19.4075 144.953 20.8338 143.516 21.663C142.079 22.4948 140.408 23.0867 140.408 23.0867C140.408 23.0867 143.635 23.5639 147.577 23.2067C151.524 22.852 155.35 21.7064 158.578 21.7817C163.601 21.9016 167.544 25.5808 167.544 25.5808C167.544 25.5808 162.048 25.938 157.503 27.7202C152.961 29.4998 150.57 31.638 147.222 33.0629C143.874 34.4879 140.288 34.2481 140.288 34.2481C140.288 34.2481 142.559 35.3159 144.351 37.4578C146.145 39.5934 146.626 41.373 146.626 41.373C146.626 41.373 141.481 39.476 136.7 39.3561C131.916 39.2349 125.699 41.2059 121.275 41.1396C113.624 41.0184 107.405 39.5934 107.405 39.5934C107.405 39.5934 108.123 40.4252 108.723 41.1396C109.318 41.8489 111.234 43.3938 111.234 43.3938C111.234 43.3938 104.18 41.0184 96.8851 41.0184C89.5906 41.0184 83.6112 43.0379 76.9188 42.4447C70.2239 41.8489 60.7777 39.5934 54.9195 36.8621C49.0612 34.132 43.2004 29.6185 39.0181 27.9562C34.8346 26.2939 32.9788 26.5312 32.9788 26.5312Z" fill="#E41F25"/>
<path d="M56.5964 24.874C57.8221 24.874 57.7788 24.4224 57.7788 23.2207C57.7788 22.2741 57.539 22.0049 56.5964 22.0049H54.3911V24.874H56.5964ZM51.543 19.5427H57.0364C59.5045 19.5835 60.7149 20.1091 60.7149 22.7525C60.7149 24.5206 60.7149 25.554 58.6933 26.0234V26.1344C59.8578 26.1778 60.6141 26.8144 60.6141 28.0148V30.1491H57.7673V28.6655C57.7941 27.8758 57.4561 27.3374 56.5964 27.3374H54.3911V30.1491H51.543V19.5427Z" fill="white"/>
<path d="M68.1219 21.6668H68.0926L66.7941 26.2607H69.4484L68.1219 21.6668ZM66.1819 28.3274L65.6564 30.1491H62.696L65.8975 19.5427H70.229L73.4776 30.1491H70.5708L70.0147 28.3274H66.1819Z" fill="white"/>
<path d="M78.4608 27.6921H80.9518C82.0041 27.6921 82.3892 26.9981 82.3892 25.8793V23.6595C82.3892 22.2881 81.9479 22.0049 80.9518 22.0049H78.4608V27.6921ZM75.6101 19.5427H81.0219C83.9976 19.5427 85.3279 20.6462 85.3279 23.6595V25.8793C85.3279 28.7803 84.3866 30.1491 81.4097 30.1491H75.6101V19.5427Z" fill="white"/>
<path d="M91.2059 19.5427H88.356V30.1491H91.2059V19.5427Z" fill="white"/>
<path d="M98.9055 21.6668H98.8813L97.5854 26.2607H100.236L98.9055 21.6668ZM96.9719 28.3274L96.4439 30.1491H93.4873L96.6887 19.5427H101.019L104.265 30.1491H101.36L100.805 28.3274H96.9719Z" fill="white"/>
<path d="M109.377 30.1491H106.531V19.5427H111.348L114.406 27.6908H114.52L114.349 19.5427H117.196V30.1491H112.34L109.32 22.0049H109.206L109.377 30.1491Z" fill="white"/>
<path d="M125.23 30.1491H122.382V22.0049H119.647V19.5427H128.107V22.0049H125.23V30.1491Z" fill="white"/>
<path d="M29.2901 39.9799C29.1664 40.0156 28.9916 40.036 28.748 40.0411C27.6371 40.0667 27.2085 39.5283 27.6588 39.3892C27.8156 39.3408 27.9891 39.2795 28.1792 39.2425C28.4368 39.1979 29.7161 39.8625 29.2901 39.9799ZM27.0146 35.8772C26.7953 35.7662 26.669 35.3809 26.6677 34.7635C26.6677 34.2774 26.7761 32.7452 26.8272 32.1099C26.8348 31.9352 26.9279 31.8459 26.9662 31.8459C26.9891 31.8459 27.0108 31.8459 27.0274 31.8459C27.2085 31.8408 27.3858 31.8089 27.5542 31.7591C27.7417 31.7055 27.8603 31.7693 27.9585 31.9377C28.1345 32.2286 28.4189 32.7401 28.6957 33.3653C28.9253 33.8972 29.2404 34.5874 29.4023 35.0237C29.5388 35.3835 29.4049 35.548 29.1779 35.6998C28.7748 35.9703 28.2786 36.0239 27.8029 36.0137C27.5376 36.0098 27.2774 35.9588 27.0146 35.8772ZM26.7583 24.3127C26.7506 24.5551 26.7111 24.6928 26.5147 24.7553C26.3807 24.7923 26.2506 24.8421 26.1282 24.8995C26.0351 24.9442 25.8642 24.8842 25.7226 24.6724C25.6371 24.5461 25.516 24.194 25.4318 23.9338C25.3323 23.5893 25.3935 23.2168 25.4343 23.0484C25.6729 22.1337 25.9075 21.4372 26.3144 20.6016C26.3654 20.4906 26.6843 19.9854 26.7953 20.6449C26.8718 21.1654 26.7953 23.4005 26.7583 24.3127ZM25.8246 34.0363C25.6882 33.6791 25.5606 33.3078 25.4445 32.9238C25.3616 32.6279 25.2813 32.3217 25.2099 32.013C25.1014 31.5384 25.2979 30.9784 25.5581 31.2718C25.6333 31.3356 25.7111 31.393 25.7876 31.4453C25.8973 31.518 26.1282 31.7043 26.1231 32.0436C26.1116 32.4875 26.0976 33.1713 26.0938 33.4635C26.0899 33.91 25.905 34.2404 25.8246 34.0363ZM25.0925 20.6679C24.8221 21.3122 22.766 20.9971 23.1627 20.2954C23.4114 19.8489 23.6844 19.4356 23.9739 19.0567C24.8183 17.943 25.9586 18.8372 25.442 19.8961C25.3183 20.1461 25.1996 20.4026 25.0925 20.6679ZM21.349 20.909C21.1564 21.2471 20.5187 21.242 20.1832 21.1654C19.8427 21.0915 19.6666 20.696 20.3286 19.567C20.9919 18.4328 22.3273 17.1584 23.3528 16.5588C24.4892 15.8916 25.6371 15.9668 25.1308 16.3241C23.6321 17.3842 22.3222 18.9584 21.349 20.909ZM27.1817 16.2641C28.1141 15.8967 28.2646 16.2143 28.0503 16.4223C27.8986 16.5677 27.7417 16.7195 27.5963 16.8777C26.1894 18.3856 24.9165 17.3153 27.1817 16.2641ZM28.5937 31.1621C28.7276 31.0319 28.8564 30.8852 28.9712 30.7258C28.9942 30.6888 29.1472 30.6569 29.3028 30.7385C29.5528 30.8661 29.9635 31.0817 30.3768 31.3228C30.6242 31.467 31.0707 31.7489 31.3283 31.9211C31.762 32.2005 31.9329 32.4021 31.7313 32.8358C31.4138 33.4979 31.0439 34.0797 30.6306 34.5606C30.1702 35.025 29.6587 34.0057 29.2021 33.1012C28.8781 32.462 28.6243 31.8331 28.5006 31.518C28.4164 31.3241 28.5401 31.2131 28.5937 31.1621ZM29.6664 29.0865C29.6766 29.0405 29.7174 28.9448 29.8373 28.9334C30.1383 28.9078 30.5949 28.8938 31.0579 28.9002C32.7058 28.9295 32.7862 29.1579 32.7441 29.4386C32.6522 30.0381 32.5272 30.6097 32.3716 31.1506C32.1956 31.6966 31.4163 31.2884 30.7556 30.9082C30.2786 30.6326 29.7824 30.2716 29.5414 30.0905C29.4444 30.0203 29.4368 29.8736 29.4559 29.8213C29.5452 29.5891 29.6179 29.3442 29.6664 29.0865ZM23.1372 39.5959C21.7316 39.4518 21.2725 38.7042 21.8643 38.5996C22.3515 38.5115 22.9663 38.3495 23.6244 38.7884C24.2788 39.2285 24.5441 39.7388 23.1372 39.5959ZM33.9609 15.8635C34.8193 15.8533 35.3422 16.2947 35.5654 16.5983C35.7937 16.893 35.4863 17.189 35.1547 17.203C34.9239 17.2132 34.3996 17.1341 33.767 17.3268C32.5834 17.6916 32.4966 15.875 33.9609 15.8635ZM39.726 30.4234C39.6724 30.7844 39.6048 31.1442 39.5309 31.495C38.4812 36.2637 35.5284 39.6967 32.1229 39.6342C30.5337 39.6048 29.0682 38.8113 27.873 37.4884C27.6269 37.209 27.6702 36.9845 28.0733 36.9641C31.0222 36.8199 33.0808 33.3053 33.4022 28.6693C33.4124 28.5366 33.3691 28.409 33.2772 28.3121C33.1854 28.2164 33.0578 28.1603 32.9277 28.1603C32.9277 28.1603 31.6 28.3299 30.7888 28.3146C30.4112 28.3095 30.0975 28.2891 29.8641 28.2738C29.822 28.2713 29.7442 28.219 29.7467 28.0646C29.7378 27.8515 29.7135 27.6474 29.6766 27.4471C29.6434 27.2724 29.6931 27.1894 29.8194 27.1142C29.9686 27.0249 30.2072 26.8743 30.5503 26.6613C31.1854 26.262 31.8551 25.855 31.8551 25.855C31.9954 25.7708 32.1114 25.6063 32.026 25.4672C31.9456 25.3282 31.762 25.281 31.6204 25.3639C31.6204 25.3639 31.3168 25.554 30.7046 25.8869C30.3411 26.0808 29.9584 26.2671 29.7059 26.3857C29.5312 26.4725 29.3577 26.4393 29.2404 26.1995C29.1804 26.0885 29.1319 25.9558 29.0758 25.8754C29.0235 25.7364 29.0235 25.5833 29.0758 25.4328C29.1728 25.1559 29.3437 24.6852 29.5414 24.2195C29.8436 23.5026 30.1013 22.9527 30.1013 22.9527C30.1651 22.8086 30.1064 22.6402 29.9635 22.5751C29.8169 22.5088 29.6485 22.57 29.5835 22.7129C29.5835 22.7129 28.748 24.5244 28.5848 24.7094C28.4189 24.8944 28.2327 25.0105 28.0172 24.9123C27.9062 24.8561 27.7927 24.8102 27.6779 24.777C27.5236 24.6941 27.4623 24.4696 27.4623 24.0881C27.4598 23.4567 27.4598 22.4629 27.4738 21.6579C27.4853 21.0175 27.5197 20.525 27.544 20.1997C27.6001 19.7405 27.8029 19.6001 28.2786 19.6575C30.1919 19.8961 32.1255 21.5239 32.7747 24.194C32.8461 24.4977 32.9953 24.6278 33.1369 24.5716C33.2887 24.5079 33.4252 24.3484 33.3856 23.9593C33.341 23.5396 33.3333 23.0739 33.3295 22.8048C33.2887 21.1591 34.0769 19.7838 35.1496 19.137C36.096 18.5668 37.2644 18.5655 38.2656 19.4496C38.8039 19.9254 39.2847 19.7685 38.8829 19.0388C37.8995 17.2528 36.6075 15.8967 35.1407 15.1415C32.7402 10.2337 28.9304 7.02653 24.5887 6.94361C21.8247 6.89258 19.2457 8.16959 16.9384 10.4965C16.7496 10.6815 16.7407 10.9048 16.8708 11.0425C17.0035 11.179 17.256 11.1522 17.4409 10.9647C19.5646 8.82914 22.076 7.85066 24.5683 7.89658C27.8335 7.95782 30.7722 9.97219 32.9533 13.2164C33.2657 13.6731 33.1025 14.4845 31.9903 14.4615C30.8806 14.4398 25.0708 14.3326 25.0708 14.3326C21.6934 14.2701 18.0315 17.286 16.1655 21.6655C16.0966 21.8199 16.0851 22.1044 16.3428 22.2779C16.5647 22.4259 17.5863 22.2218 18.7407 22.2524C20.1934 22.2932 20.9982 22.5407 20.8911 23.2028C20.8439 23.5013 20.8107 23.7947 20.7687 24.1621C20.7291 24.4505 20.8005 24.6826 21.0174 24.7298C21.2304 24.777 21.437 24.6074 21.5059 24.3254C21.6245 23.8381 21.761 23.3674 21.9089 22.9209C22.6041 20.8325 24.8221 21.4512 24.414 23.0216C24.0313 24.49 23.8017 26.0859 23.7698 27.7559C23.7227 30.4196 24.1576 32.7912 25.0708 34.8719C25.6882 36.2688 26.5861 37.5866 27.4254 38.5843C27.845 39.0792 26.2583 39.1724 25.3323 38.3508C23.0071 36.2918 21.4115 32.6011 20.9587 28.358C20.9268 28.0697 20.8656 27.789 20.5735 27.7929C20.284 27.798 20.2444 28.1832 20.2495 28.4728C20.3044 31.6609 21.4625 35.0632 22.1232 36.6541C22.7814 38.2436 20.284 38.8203 18.5672 36.6069C16.8402 34.3744 15.6413 31.2705 15.7089 27.752C15.7242 26.9292 15.7675 25.9584 15.8976 25.0947C15.9958 24.4262 16.3798 24.2144 16.6361 24.1481C16.8759 24.0881 17.1552 24.0333 17.1591 23.8674C17.1616 23.708 16.992 23.6161 16.7292 23.5855C16.4639 23.5549 16.0366 23.5944 15.8389 23.6353C15.6413 23.6761 15.4257 23.8623 15.3683 24.0856C15.0622 25.2822 14.9066 26.3908 14.8849 27.5887C14.7433 35.1589 19.9677 41.1319 24.5581 41.2148C24.5581 41.2148 30.8207 41.3335 31.7454 41.3513C32.6714 41.3679 32.6803 42.3247 31.7849 43.6476C30.9061 44.9438 29.6906 45.8585 28.484 46.5639C28.2531 46.6979 28.1473 46.925 28.2468 47.11C28.3488 47.2975 28.646 47.337 28.8768 47.2031C31.2097 45.8406 33.1867 43.5889 34.693 40.767C37.4429 39.4543 39.726 36.0698 40.3663 31.7043C40.6903 29.5011 39.8421 29.6337 39.726 30.4234Z" fill="#2B2B2A"/>
<path d="M152.335 10.8615C152.831 10.8615 153.168 10.6701 153.168 10.258C153.168 9.89573 152.874 9.66483 152.447 9.66483H151.401V10.8615H152.335ZM150.757 9.12009H152.527C153.521 9.12009 153.856 9.73372 153.856 10.1675C153.856 10.813 153.39 11.2761 152.71 11.3143V11.3348C153.055 11.456 153.309 11.7966 153.642 12.3324L154.128 13.1067H153.34L152.985 12.4816C152.478 11.5874 152.285 11.4151 151.786 11.4151H151.401V13.1067H150.757V9.12009ZM152.191 8.13523C150.469 8.13523 149.079 9.51557 149.079 11.2263C149.079 12.9371 150.469 14.3251 152.191 14.3251C153.913 14.3251 155.313 12.9371 155.313 11.2263C155.313 9.51557 153.915 8.13523 152.191 8.13523ZM152.191 14.9412C150.127 14.9412 148.461 13.279 148.461 11.2263C148.461 9.17367 150.127 7.52032 152.191 7.52032C154.254 7.52032 155.934 9.1724 155.934 11.2263C155.934 13.2802 154.261 14.9412 152.191 14.9412Z" fill="#2B2B2A"/>
<path d="M168.161 71.6002C167.535 71.6002 167.189 71.0389 167.189 70.3946C167.189 69.7504 167.535 69.1993 168.17 69.1993C168.796 69.1993 169.132 69.7504 169.132 70.3946C169.132 71.0389 168.786 71.6002 168.161 71.6002ZM167.974 74.9349C169.786 74.9349 170.43 73.3467 170.43 71.4598C170.43 70.6 170.29 69.7223 169.842 69.1049C169.478 68.5818 168.907 68.2361 168.189 68.2361C166.975 68.2361 166.115 69.1891 166.115 70.4507C166.115 71.6652 166.937 72.571 168.002 72.571C168.656 72.571 169.16 72.2355 169.432 71.7405H169.45C169.46 72.039 169.432 72.3478 169.337 72.6271C169.16 73.3939 168.749 73.9909 167.928 73.9909C167.516 73.9909 167.04 73.8608 166.638 73.6452L166.33 74.468C166.751 74.7295 167.321 74.9349 167.974 74.9349ZM163.482 70.6281C163.145 70.6281 162.827 70.7123 162.557 70.8705L162.687 69.3485H164.975V68.3585H161.734L161.455 71.7494L162.313 71.974C162.557 71.7124 162.855 71.59 163.182 71.59C163.855 71.59 164.238 72.0671 164.238 72.7394C164.238 73.3556 163.911 73.908 163.108 73.908C162.547 73.908 161.968 73.6273 161.511 73.3288L161.118 74.2065C161.781 74.6734 162.482 74.9349 163.192 74.9349C164.499 74.9349 165.387 74.0572 165.387 72.7305C165.387 71.479 164.603 70.6281 163.482 70.6281ZM158.195 71.6002C157.568 71.6002 157.223 71.0389 157.223 70.3946C157.223 69.7504 157.568 69.1993 158.204 69.1993C158.83 69.1993 159.165 69.7504 159.165 70.3946C159.165 71.0389 158.821 71.6002 158.195 71.6002ZM158.007 74.9349C159.82 74.9349 160.464 73.3467 160.464 71.4598C160.464 70.6 160.325 69.7223 159.876 69.1049C159.511 68.5818 158.942 68.2361 158.223 68.2361C157.009 68.2361 156.149 69.1891 156.149 70.4507C156.149 71.6652 156.972 72.571 158.035 72.571C158.69 72.571 159.193 72.2355 159.465 71.7405H159.483C159.493 72.039 159.465 72.3478 159.372 72.6271C159.193 73.3939 158.783 73.9909 157.961 73.9909C157.551 73.9909 157.074 73.8608 156.672 73.6452L156.364 74.468C156.784 74.7295 157.354 74.9349 158.007 74.9349ZM154.169 68.3585L152.366 69.4786L152.768 70.3946L153.87 69.7312V74.8507H155V68.3585H154.169ZM146.463 73.8136V68.2552H145.305V74.8507H149.835V73.8136H146.463ZM140.374 72.1602L141.307 69.4225L142.232 72.1602H140.374ZM143.082 74.8507H144.38L141.952 68.2552H140.7L138.253 74.8507H139.495L140.093 73.1693H142.503L143.082 74.8507ZM134.871 73.8416H133.592V69.2643H134.871C136.058 69.2643 136.796 70.077 136.796 71.5619C136.796 73.0379 136.058 73.8416 134.871 73.8416ZM134.854 68.2552H132.434V74.8507H134.854C136.88 74.8507 138.01 73.524 138.01 71.5619C138.01 69.5998 136.88 68.2552 134.854 68.2552ZM129.23 68.2552H124.457V74.8507H129.267V73.8136H125.615V71.974H128.912V70.9368H125.615V69.2924H129.23V68.2552ZM119.246 69.2924H120.927C121.683 69.2924 122.038 69.582 122.038 70.3474C122.038 71.1333 121.655 71.3846 120.936 71.3846H119.246V69.2924ZM123.373 74.8507L121.916 72.2725C122.804 72.039 123.215 71.3948 123.215 70.3385C123.215 68.9658 122.392 68.2552 120.927 68.2552H118.096V74.8507H119.246V72.4218H120.693L121.992 74.8507H123.373ZM113.79 73.9539C112.669 73.9539 111.913 73.1413 111.913 71.5619C111.913 69.9647 112.669 69.1431 113.79 69.1431C114.901 69.1431 115.649 69.9647 115.649 71.5619C115.649 73.1413 114.901 73.9539 113.79 73.9539ZM113.79 75C115.668 75 116.863 73.6273 116.863 71.5619C116.863 69.4965 115.668 68.106 113.79 68.106C111.913 68.106 110.699 69.4978 110.699 71.5619C110.699 73.626 111.904 75 113.79 75ZM106.691 73.8136V68.2552H105.533V74.8507H110.063V73.8136H106.691ZM100.602 72.1602L101.536 69.4225L102.46 72.1602H100.602ZM103.31 74.8507H104.608L102.18 68.2552H100.929L98.4809 74.8507H99.7232L100.321 73.1693H102.731L103.31 74.8507ZM95.4453 75C96.4082 75 97.3049 74.5803 97.9299 73.8799L97.2858 73.1604C96.7998 73.6732 96.2029 73.9539 95.5677 73.9539C94.4364 73.9539 93.5499 73.0201 93.5499 71.553C93.5499 70.0859 94.4364 69.1521 95.5766 69.1521C96.231 69.1521 96.81 69.4697 97.2947 69.9558L97.9401 69.2273C97.3419 68.5448 96.4452 68.106 95.4644 68.106C93.7833 68.106 92.3446 69.3766 92.3446 71.553C92.3446 73.7013 93.7553 75 95.4453 75ZM86.3103 73.8136V68.2552H85.1522V74.8507H89.6827V73.8136H86.3103ZM83.7517 68.2552H78.9789V74.8507H83.7887V73.8136H80.137V71.974H83.4341V70.9368H80.137V69.2924H83.7517V68.2552ZM76.3348 68.2552V73.0941L73.0569 68.2552H71.8796V74.8507H73.0097V69.9838L76.3068 74.8507H77.4649V68.2552H76.3348ZM65.1553 72.1602L66.089 69.4225L67.0137 72.1602H65.1553ZM67.8632 74.8507H69.1616L66.7331 68.2552H65.4818L63.0342 74.8507H64.2765L64.8747 73.1693H67.2841L67.8632 74.8507ZM60.9233 74.8507H62.0814V68.2552H60.9233V74.8507ZM56.6926 72.0952H58.3086V73.5903C57.9157 73.8416 57.3456 73.9628 56.8979 73.9628C55.5995 73.9628 54.8801 72.992 54.8801 71.59C54.8801 69.9838 55.787 69.1431 56.954 69.1431C57.5701 69.1431 58.1313 69.4136 58.6632 69.9277L59.2983 69.1993C58.644 68.4797 57.8035 68.106 56.8418 68.106C55.0013 68.106 53.6748 69.3855 53.6748 71.59C53.6748 73.6554 54.8712 75 56.7946 75C57.6262 75 58.6542 74.7487 59.4017 74.2154V71.1231H56.6926V72.0952ZM49.6213 73.9539C48.5002 73.9539 47.7438 73.1413 47.7438 71.5619C47.7438 69.9647 48.5002 69.1431 49.6213 69.1431C50.7335 69.1431 51.481 69.9647 51.481 71.5619C51.481 73.1413 50.7335 73.9539 49.6213 73.9539ZM49.6213 75C51.4988 75 52.6952 73.6273 52.6952 71.5619C52.6952 69.4965 51.4988 68.106 49.6213 68.106C47.7438 68.106 46.5296 69.4978 46.5296 71.5619C46.5296 73.626 47.7349 75 49.6213 75ZM42.5233 73.8136V68.2552H41.3639V74.8507H45.8944V73.8136H42.5233ZM37.0592 73.9539C35.9381 73.9539 35.1817 73.1413 35.1817 71.5619C35.1817 69.9647 35.9381 69.1431 37.0592 69.1431C38.1701 69.1431 38.9176 69.9647 38.9176 71.5619C38.9176 73.1413 38.1701 73.9539 37.0592 73.9539ZM37.0592 75C38.9354 75 40.1318 73.6273 40.1318 71.5619C40.1318 69.4965 38.9354 68.106 37.0592 68.106C35.1715 68.106 33.9674 69.4978 33.9674 71.5619C33.9674 73.626 35.1715 75 37.0592 75ZM31.604 68.2552V73.0941L28.3248 68.2552H27.1488V74.8507H28.2788V69.9838L31.5759 74.8507H32.7341V68.2552H31.604ZM23.4869 75C24.4486 75 25.3452 74.5803 25.9715 73.8799L25.3274 73.1604C24.8414 73.6732 24.2432 73.9539 23.6081 73.9539C22.478 73.9539 21.5903 73.0201 21.5903 71.553C21.5903 70.0859 22.478 69.1521 23.6183 69.1521C24.2713 69.1521 24.8504 69.4697 25.3363 69.9558L25.9804 69.2273C25.3835 68.5448 24.4869 68.106 23.506 68.106C21.8249 68.106 20.3862 69.3766 20.3862 71.553C20.3862 73.7013 21.7969 75 23.4869 75ZM19.4232 68.2552H14.6504V74.8507H19.4615V73.8136H15.8085V71.974H19.1056V70.9368H15.8085V69.2924H19.4232V68.2552ZM13.7168 68.2552H8.40186V69.2924H10.4758V74.8507H11.6428V69.2924H13.7168V68.2552Z" fill="#2B2B2A"/>
</svg>
